<svg t="1686230634352" class="icon" viewBox="0 0 1024 1024" version="1.1" xmlns="http://www.w3.org/2000/svg" p-id="2509" width="200" height="200"><path d="M59.8 586.8c-17 6.5-36.2-2.2-42.6-19.2-6.5-17 2.2-36.2 19.2-42.6l70.6-26.7c17-6.5 36.2 2.2 42.6 19.2 6.5 17-2.2 36.2-19.2 42.6l-70.6 26.7zM54.9 303.3C37.8 297 29 278 35.3 260.9c6.3-17.1 25.4-25.9 42.5-19.6l70.8 26.2c17.1 6.3 25.9 25.4 19.6 42.5-6.3 17.1-25.4 25.9-42.5 19.6l-70.8-26.3zM261.5 93c-5.1-17.5 5.1-35.9 22.6-40.9C301.6 47 320 57.2 325 74.7l21 72.5c5.1 17.5-5.1 35.9-22.6 40.9-17.5 5.1-35.9-5.1-40.9-22.6l-21-72.5zM564.5 108.9c7.5-16.6 27.1-24.1 43.7-16.6s24.1 27.1 16.6 43.7L594 204.8c-7.5 16.6-27.1 24.1-43.7 16.6s-24.1-27.1-16.6-43.7l30.8-68.8zM762 293.5c16-8.7 36.1-2.7 44.8 13.3 8.7 16 2.7 36.1-13.3 44.8l-66.4 36c-16 8.7-36.1 2.7-44.8-13.3-8.7-16-2.7-36.1 13.3-44.8l66.4-36zM1007.5 789.1c-5.8-40-24.8-71.2-60.1-91.4-23.6-13.6-49.6-19.6-76.7-20.7-9.7-0.4-10.7-1.1-10.3-10.7 0.4-12.3-0.5-24.5-2.1-36.6-4.9-36-15.4-70.4-33.5-102.1-19.4-33.8-45.7-60.7-80.7-78.7-31.8-16.3-66-22.4-101.3-23.4-20.2-100.8-109.2-176.8-216-176.8-121.7 0-220.4 98.7-220.4 220.4 0 47.9 15.4 92.1 41.4 128.2-17.8 19.4-27.1 43.4-28.6 71.5-0.3 6.1-2.7 8.7-8.3 9.2-7 0.6-13.8 2.4-20.6 4.4-31.5 9-56.2 26.9-72.2 55.9-16.8 30.4-20.4 63.6-18.3 97.6 1 16.3 5.1 32.1 13.3 46.7 13.7 24.5 34.1 41.5 58.9 53.6 29.2 14.2 59.6 23.2 92.7 23.1 102.8-0.4 205.5-0.2 308.3-0.2h313.7c11.8 0 23.4-0.9 35-4.1 37.6-10.5 64-33.6 77.6-70.1 11.4-30.9 12.9-63.1 8.2-95.8zM426.7 314.8c72.3 0 133.1 50.1 149.6 117.4-5 1.1-10.1 2.2-15.1 3.6-24.9 7-46.7 17.7-65.4 31.9-24.1 18.2-43.3 42.1-57.1 72.4-8.5 18.7-13.9 38.3-17.9 58.3-0.4 1.9 0.1 4.6-2.5 5-2 0.3-3-1.8-4.1-3.2-27.8-34-63.5-45.1-105.8-35.5-0.8 0.2-1.5 0.2-2.3 0.3-21-26.4-33.7-59.7-33.7-95.9 0.1-85.1 69.3-154.3 154.3-154.3z" fill="#333333" p-id="2510"></path></svg>